<svg class="svg-icon" style="width: 1em; height: 1em;vertical-align: middle;fill: currentColor;overflow: hidden;" viewBox="0 0 1024 1024" version="1.1" xmlns="http://www.w3.org/2000/svg"><path d="M512 512m-414 0a414 414 0 1 0 828 0 414 414 0 1 0-828 0Z" fill="#F0C48A" /><path d="M565.6 11.8l-150.6 150.4h75.4l-57.6 161.2 176.2-155.8h-81.2z" fill="#FD919E" /><path d="M432.8 335.2c-2.2 0-4.6-0.6-6.6-2-4.4-3-6.2-8.6-4.4-13.6l52-145.6h-58.6c-4.8 0-9-2.8-10.8-7.2-1.8-4.4-0.8-9.4 2.6-12.8l150.4-150.4c3.8-3.8 9.4-4.6 14-2 4.6 2.6 6.8 7.8 5.6 13L542.8 156h66.2c4.8 0 9.2 3 11 7.6 1.8 4.6 0.4 9.8-3.2 13l-176.2 155.8c-2.4 1.8-5.2 2.8-7.8 2.8z m10.6-184.8h47c3.8 0 7.4 1.8 9.6 5 2.2 3.2 2.8 7.2 1.4 10.6l-42.2 118.4L578 179.4h-50.2c-3.6 0-7-1.6-9.2-4.4-2.2-2.8-3-6.6-2.2-10l28-115.2-101 100.6z" fill="#4C4372" /><path d="M636.2 1012.2h-73.8c-40.8 0-73.8-33-73.8-73.8s33-73.8 73.8-73.8h73.8v147.6z" fill="#FD919E" /><path d="M582 864.6h54v147.6h-54z" fill="#E8677D" /><path d="M921 675.8c0-77.2-62.6-139.6-139.6-139.6h-48.6L602 405.4c-11-11-26.2-17.4-41.8-17.4H227.4c-24.4 0-36.6 29.4-19.4 46.6 12.8 12.8 12.8 33.8 0 46.6l-35.4 35.4c-13.4 13.4-20.8 31.4-20.8 50.2v108.6h-13.4c-22.4 0-40.6 18.2-40.6 40.6 0 22.4 18.2 40.6 40.6 40.6h796c22.4 0 40.6-18.2 40.6-40.6 0-22.4-18.2-40.6-40.6-40.6h-13.4z" fill="#D3E6F8" /><path d="M333.2 485.6l32.2 45.6h367.2l-88.8-73.6H357.6s-32.4 16.4-24.4 28z" fill="#FFFFFF" /><path d="M425.6 461.2h45.2v71.2h-45.2z" fill="#D3E6F8" /><path d="M425.6 536.8h45.2v139h-45.2zM687.4 536.8h45.2v139h-45.2zM519.4 388l71.4 69.6h52.8L574 388z" fill="#A4CFF2" /><path d="M590.8 457.6l75 78.6h55.2s-71.4-78.6-93.4-78.6h-36.8z" fill="#D3E6F8" /><path d="M817.2 557.8s-15.2 66.8 39.4 66.8 51.8-10.4 43-23c-8.8-12.6-82.4-71.2-82.4-43.8z" fill="#FFFFFF" /><path d="M864.2 632.8v-67.8s81.6 60.8 0 67.8z" fill="#D3E6F8" /><path d="M864.2 632.8v36.2s60 12.6 55.8-9c-4.2-21.4-0.4-38.2-55.8-27.2z" fill="#A4CFF2" /><path d="M933 759.4H139.6c-23.2 0-41.8-18.8-41.8-41.8 0-23.2 18.8-41.8 41.8-41.8h793.4c23.2 0 41.8 18.8 41.8 41.8 0 23.2-18.6 41.8-41.8 41.8z" fill="#7BABF1" /><path d="M934.4 768.6h-796c-28.8 0-52.2-23.4-52.2-52.2 0-28.8 23.4-52.2 52.2-52.2h1.6v-97c0-22.2 8.6-43 24.2-58.6l35.4-35.4c4-4 6.2-9.4 6.2-15s-2.2-11-6.2-15c-11.4-11.4-14.6-27.6-8.4-42.6 6.2-14.8 20-24.2 36-24.2H560c19 0 36.8 7.4 50 20.8l127.4 127.4h43.8c79.6 0 145 61.6 151 139.6h2.2c28.8 0 52.2 23.4 52.2 52.2 0 28.6-23.4 52.2-52.2 52.2z m-796-81c-15.8 0-28.8 13-28.8 28.8s13 28.8 28.8 28.8h796c15.8 0 28.8-13 28.8-28.8s-13-28.8-28.8-28.8h-13.4c-6.4 0-11.8-5.2-11.8-11.8 0-70.6-57.4-128-128-128h-48.8c-3.2 0-6-1.2-8.2-3.4l-130.8-130.8c-9-9-20.8-13.8-33.4-13.8H227.4c-9.6 0-13.4 7.4-14.4 9.6-1 2.2-3.4 10.2 3.4 17 8.4 8.4 13.2 19.6 13.2 31.6s-4.6 23.2-13.2 31.6l-35.4 35.4c-11.2 11.2-17.4 26.2-17.4 42v108.6c0 6.4-5.2 11.8-11.8 11.8h-13.4z m794.2-11.8z" fill="#4C4372" /><path d="M732.6 684.2c-6.4 0-11.8-5.2-11.8-11.8v-124.6H385.2c-14.4 0-27.8-5.6-38-15.8l-18-18c-11.6-11.6-15-28.4-8.6-43.6 6.4-15.2 20.4-24.6 37-24.6H654c6.4 0 11.8 5.2 11.8 11.8s-5.2 11.8-11.8 11.8H357.6c-7 0-12.6 3.8-15.2 10.2-2.6 6.4-1.4 13.2 3.6 18l18 18c5.8 5.8 13.4 8.8 21.4 8.8h347.4c6.4 0 11.8 5.2 11.8 11.8v136.4c-0.2 6.4-5.6 11.6-12 11.6z" fill="#4C4372" /><path d="M470.8 768.6c-6.4 0-11.8-5.2-11.8-11.8V457.6c0-6.4 5.2-11.8 11.8-11.8s11.8 5.2 11.8 11.8v299.2c0 6.4-5.2 11.8-11.8 11.8z" fill="#4C4372" /><path d="M921 687.6H151.8c-6.4 0-11.8-5.2-11.8-11.8 0-6.4 5.2-11.8 11.8-11.8h769.2c6.4 0 11.8 5.2 11.8 11.8-0.2 6.4-5.4 11.8-11.8 11.8zM237.8 625c-24.6 0-44.6-20-44.6-44.6s20-44.6 44.6-44.6 44.6 20 44.6 44.6-20 44.6-44.6 44.6z m0-65.8c-11.8 0-21.2 9.6-21.2 21.2 0 11.8 9.6 21.2 21.2 21.2 11.8 0 21.2-9.6 21.2-21.2 0-11.8-9.4-21.2-21.2-21.2zM911.2 636.2h-54.6c-28.2 0-51.2-23-51.2-51.2v-37.6c0-6.4 5.2-11.8 11.8-11.8 6.4 0 11.8 5.2 11.8 11.8v37.6c0 15.2 12.4 27.6 27.6 27.6h54.6c6.4 0 11.8 5.2 11.8 11.8 0 6.6-5.4 11.8-11.8 11.8z" fill="#4C4372" /><path d="M488.6 950.2H49.2c-6.4 0-11.8-5.2-11.8-11.8v-358c0-6.4 5.2-11.8 11.8-11.8h155.8c6.4 0 11.8 5.2 11.8 11.8s-5.2 11.8-11.8 11.8h-144v334.6h427.8c6.4 0 11.8 5.2 11.8 11.8-0.4 6.4-5.6 11.6-12 11.6z" fill="#4C4372" /><path d="M636.2 1024h-73.8c-47.2 0-85.6-38.4-85.6-85.6 0-47.2 38.4-85.6 85.6-85.6h73.8c6.4 0 11.8 5.2 11.8 11.8v147.6c-0.2 6.6-5.4 11.8-11.8 11.8z m-73.8-147.6c-34.2 0-62 27.8-62 62s27.8 62 62 62h62v-124.2h-62z" fill="#4C4372" /><path d="M706 902.4h-69.8c-6.4 0-11.8-5.2-11.8-11.8 0-6.4 5.2-11.8 11.8-11.8H706c6.4 0 11.8 5.2 11.8 11.8 0 6.6-5.4 11.8-11.8 11.8zM706 998h-69.8c-6.4 0-11.8-5.2-11.8-11.8 0-6.4 5.2-11.8 11.8-11.8H706c6.4 0 11.8 5.2 11.8 11.8 0 6.6-5.4 11.8-11.8 11.8zM582 1014c-6.4 0-11.8-5.2-11.8-11.8v-137.6c0-6.4 5.2-11.8 11.8-11.8 6.4 0 11.8 5.2 11.8 11.8v137.6c0 6.6-5.2 11.8-11.8 11.8z" fill="#4C4372" /><path d="M301.8 757m-97 0a97 97 0 1 0 194 0 97 97 0 1 0-194 0Z" fill="#7BABF1" /><path d="M780.2 757m-97 0a97 97 0 1 0 194 0 97 97 0 1 0-194 0Z" fill="#7BABF1" /><path d="M301.8 865.8c-60 0-108.8-48.8-108.8-108.8s48.8-108.8 108.8-108.8 108.8 48.8 108.8 108.8-48.8 108.8-108.8 108.8z m0-194c-47 0-85.2 38.2-85.2 85.2s38.2 85.2 85.2 85.2 85.2-38.2 85.2-85.2c0.2-47-38.2-85.2-85.2-85.2zM780.2 865.8c-60 0-108.8-48.8-108.8-108.8s48.8-108.8 108.8-108.8 108.8 48.8 108.8 108.8-48.8 108.8-108.8 108.8z m0-194c-47 0-85.2 38.2-85.2 85.2s38.2 85.2 85.2 85.2 85.2-38.2 85.2-85.2-38.2-85.2-85.2-85.2z" fill="#4C4372" /><path d="M742.969033 794.195211a52.6 52.6 0 1 0 74.386335-74.388931 52.6 52.6 0 1 0-74.386335 74.388931Z" fill="#A4CFF2" /><path d="M289.55452 808.208537a52.6 52.6 0 1 0 24.447745-102.319831 52.6 52.6 0 1 0-24.447745 102.319831Z" fill="#A4CFF2" /><path d="M780.2 821.4c-35.4 0-64.2-28.8-64.2-64.2 0-35.4 28.8-64.2 64.2-64.2 35.4 0 64.2 28.8 64.2 64.2 0 35.2-28.8 64.2-64.2 64.2z m0-105.2c-22.6 0-40.8 18.4-40.8 40.8 0 22.6 18.4 40.8 40.8 40.8 22.6 0 40.8-18.4 40.8-40.8s-18.2-40.8-40.8-40.8z" fill="#4C4372" /><path d="M301.8 821.4c-35.4 0-64.2-28.8-64.2-64.2 0-35.4 28.8-64.2 64.2-64.2s64.2 28.8 64.2 64.2c0.2 35.2-28.8 64.2-64.2 64.2z m0-105.2c-22.6 0-40.8 18.4-40.8 40.8 0 22.6 18.4 40.8 40.8 40.8s40.8-18.4 40.8-40.8-18.2-40.8-40.8-40.8z" fill="#4C4372" /></svg>